<?xml version="1.0" standalone="no"?>
<!DOCTYPE svg PUBLIC "-//W3C//DTD SVG 20010904//EN"
 "http://www.w3.org/TR/2001/REC-SVG-20010904/DTD/svg10.dtd">
<svg version="1.0" xmlns="http://www.w3.org/2000/svg"
 width="148.000000pt" height="165.000000pt" viewBox="0 0 148.000000 165.000000"
 preserveAspectRatio="xMidYMid meet">
<metadata>
Created by potrace 1.16, written by Peter Selinger 2001-2019
</metadata>
<g transform="translate(0.000000,165.000000) scale(0.100000,-0.100000)"
fill="#000000" stroke="none">
<path d="M284 1416 c-78 -34 -131 -151 -121 -267 12 -143 99 -239 206 -225
l46 5 73 -173 c72 -172 73 -174 61 -221 -31 -123 21 -269 114 -316 80 -41 175
-1 221 93 34 69 42 134 27 216 l-13 67 74 171 73 170 33 -8 c71 -19 154 35
192 124 69 160 -24 378 -162 378 -68 0 -159 -87 -174 -166 l-6 -34 -197 0
-197 0 -11 43 c-33 120 -141 185 -239 143z m650 -313 c9 -36 27 -81 41 -99 14
-18 25 -36 25 -41 0 -4 -30 -78 -67 -164 l-67 -157 -37 30 c-63 51 -158 48
-209 -7 l-24 -25 -69 161 -68 161 27 39 c25 36 54 122 54 159 0 13 25 15 189
12 l188 -3 17 -66z"/>
</g>
</svg>
